<svg width="24" height="24" viewBox="0 0 24 24" fill="none" xmlns="http://www.w3.org/2000/svg">
<path d="M12 7.75C12.4142 7.75 12.75 7.41421 12.75 7C12.75 6.58579 12.4142 6.25 12 6.25V7.75ZM3.50658 12.5259C3.45184 12.9365 3.7403 13.3137 4.15088 13.3684C4.56146 13.4232 4.93868 13.1347 4.99342 12.7241L3.50658 12.5259ZM4.49342 16.4741C4.54816 16.0635 4.2597 15.6863 3.84912 15.6316C3.43854 15.5768 3.06132 15.8653 3.00658 16.2759L4.49342 16.4741ZM20.3962 17.4713L19.6528 17.5705L20.3962 17.4713ZM18.7192 10.5684L19.6528 17.5705L21.1396 17.3722L20.206 10.3702L18.7192 10.5684ZM16.4313 21.25H7.56873V22.75H16.4313V21.25ZM8.50207 7.75H12V6.25H8.50207V7.75ZM5.24342 10.8491L5.28058 10.5705L3.79373 10.3722L3.75658 10.6509L5.24342 10.8491ZM4.99342 12.7241L5.24342 10.8491L3.75658 10.6509L3.50658 12.5259L4.99342 12.7241ZM4.34724 17.5705L4.49342 16.4741L3.00658 16.2759L2.8604 17.3722L4.34724 17.5705ZM7.56873 21.25C5.60317 21.25 4.08747 19.5188 4.34724 17.5705L2.8604 17.3722C2.48073 20.2198 4.69598 22.75 7.56873 22.75V21.25ZM19.6528 17.5705C19.9125 19.5188 18.3968 21.25 16.4313 21.25V22.75C19.304 22.75 21.5193 20.2198 21.1396 17.3722L19.6528 17.5705ZM20.206 10.3702C19.8915 8.01152 17.8795 6.25 15.5 6.25V7.75C17.1277 7.75 18.504 8.95497 18.7192 10.5684L20.206 10.3702ZM8.50207 6.25C6.12135 6.25 4.10838 8.01239 3.79373 10.3722L5.28058 10.5705C5.49586 8.95585 6.87316 7.75 8.50207 7.75V6.25Z" fill="#017D37"/>
<path d="M16 9V6C16 3.79086 14.2091 2 12 2V2C9.79086 2 8 3.79086 8 6L8 9" stroke="#017D37" stroke-width="1.5" stroke-linecap="round"/>
</svg>
