<svg width="24" height="24" viewBox="0 0 24 24" fill="none" xmlns="http://www.w3.org/2000/svg">
<path d="M3.66275 13.2135L4.20681 12.6972L3.66275 13.2135ZM20.3372 13.2135L20.8813 13.7297L20.3372 13.2135ZM20.8813 4.23612C20.5962 3.93564 20.1215 3.92319 19.821 4.2083C19.5205 4.49341 19.5081 4.96812 19.7932 5.26859L20.8813 4.23612ZM15.7197 3.03368L15.8032 3.77902L15.7197 3.03368ZM13.7555 3.64503L13.402 2.98358V2.98358L13.7555 3.64503ZM16.8429 3.77902C17.2545 3.82512 17.6256 3.52879 17.6717 3.11715C17.7178 2.7055 17.4215 2.33443 17.0098 2.28834L16.8429 3.77902ZM19.7932 5.26859C21.7356 7.31567 21.7356 10.6501 19.7932 12.6972L20.8813 13.7297C23.3729 11.1038 23.3729 6.86197 20.8813 4.23612L19.7932 5.26859ZM4.20681 5.26859C6.12806 3.2438 9.2259 3.2438 11.1472 5.26859L12.2353 4.23612C9.72253 1.58796 5.63144 1.58796 3.11869 4.23612L4.20681 5.26859ZM4.20681 12.6972C2.2644 10.6501 2.2644 7.31568 4.20681 5.26859L3.11869 4.23612C0.627102 6.86198 0.627104 11.1038 3.11869 13.7297L4.20681 12.6972ZM10.3678 19.1903L4.20681 12.6972L3.11869 13.7297L9.27971 20.2227L10.3678 19.1903ZM19.7932 12.6972L13.6322 19.1903L14.7203 20.2227L20.8813 13.7297L19.7932 12.6972ZM12.8528 5.26859C13.2337 4.86722 13.6587 4.54721 14.1091 4.30648L13.402 2.98358C12.8093 3.30036 12.2558 3.71857 11.7647 4.23612L12.8528 5.26859ZM14.1091 4.30648C14.6453 4.01989 15.22 3.84432 15.8032 3.77902L15.6362 2.28834C14.8655 2.37465 14.1072 2.60665 13.402 2.98358L14.1091 4.30648ZM15.8032 3.77902C16.1487 3.74033 16.4974 3.74033 16.8429 3.77902L17.0098 2.28834C16.5533 2.23722 16.0927 2.23722 15.6362 2.28834L15.8032 3.77902ZM11.7647 4.23612C11.8926 4.10133 12.1074 4.10133 12.2353 4.23612L11.1472 5.26859C11.6108 5.75717 12.3892 5.75717 12.8528 5.26859L11.7647 4.23612ZM9.27971 20.2227C10.7584 21.7811 13.2416 21.7811 14.7203 20.2227L13.6322 19.1903C12.7449 20.1253 11.2551 20.1253 10.3678 19.1903L9.27971 20.2227Z" fill="#017D37"/>
</svg>
