<svg width="24" height="24" viewBox="0 0 24 24" fill="none" xmlns="http://www.w3.org/2000/svg">
<path d="M3.06069 17.9728C3.2911 18.317 3.75692 18.4092 4.10114 18.1788C4.44535 17.9484 4.53761 17.4826 4.3072 17.1384L3.06069 17.9728ZM6.99368 19.7796C6.64558 19.5551 6.1814 19.6552 5.95689 20.0033C5.73238 20.3514 5.83257 20.8156 6.18067 21.0401L6.99368 19.7796ZM21.25 12C21.25 17.1086 17.1086 21.25 12 21.25V22.75C17.9371 22.75 22.75 17.9371 22.75 12H21.25ZM2.75 12C2.75 6.89137 6.89137 2.75 12 2.75V1.25C6.06294 1.25 1.25 6.06294 1.25 12H2.75ZM12 2.75C17.1086 2.75 21.25 6.89137 21.25 12H22.75C22.75 6.06294 17.9371 1.25 12 1.25V2.75ZM4.3072 17.1384C3.32361 15.669 2.75 13.9026 2.75 12H1.25C1.25 14.2088 1.91699 16.2642 3.06069 17.9728L4.3072 17.1384ZM12 21.25C10.1539 21.25 8.43629 20.71 6.99368 19.7796L6.18067 21.0401C7.85834 22.1222 9.85699 22.75 12 22.75V21.25Z" fill="#017D37"/>
<path d="M12.5 17L12.5 11" stroke="#017D37" stroke-width="1.5" stroke-linecap="round" stroke-linejoin="round"/>
<path d="M10.5 11L12.5 11" stroke="#017D37" stroke-width="1.5" stroke-linecap="round" stroke-linejoin="round"/>
<path d="M12.5 8L12.5 7" stroke="#017D37" stroke-width="1.5" stroke-linecap="round" stroke-linejoin="round"/>
</svg>
