<svg width="24" height="24" viewBox="0 0 24 24" fill="none" xmlns="http://www.w3.org/2000/svg">
<path d="M7.25 7C7.25 6.58579 7.58579 6.25 8 6.25C8.41421 6.25 8.75 6.58579 8.75 7H7.25ZM12 3.75C11.5858 3.75 11.25 3.41421 11.25 3C11.25 2.58579 11.5858 2.25 12 2.25V3.75ZM8.75 7C8.75 8.79493 10.2051 10.25 12 10.25V11.75C9.37665 11.75 7.25 9.62335 7.25 7H8.75ZM12 10.25C13.7949 10.25 15.25 8.79493 15.25 7H16.75C16.75 9.62335 14.6234 11.75 12 11.75V10.25ZM15.25 7C15.25 5.20507 13.7949 3.75 12 3.75V2.25C14.6234 2.25 16.75 4.37665 16.75 7H15.25Z" fill="#017D37"/>
<path d="M5 16.9347C5 16.0743 5.54085 15.3068 6.35109 15.0175V15.0175C10.004 13.7128 13.996 13.7128 17.6489 15.0175V15.0175C18.4591 15.3068 19 16.0743 19 16.9347V18.2502C19 19.4376 17.9483 20.3498 16.7728 20.1818L15.8184 20.0455C13.2856 19.6837 10.7144 19.6837 8.18162 20.0455L7.22721 20.1818C6.0517 20.3498 5 19.4376 5 18.2502V16.9347Z" stroke="#017D37" stroke-width="1.5"/>
</svg>
