<svg
  width="36"
  height="36"
  viewBox="0 0 36 36"
  fill="none"
  xmlns="http://www.w3.org/2000/svg"
>
<path
    fill-rule="evenodd"
    clip-rule="evenodd"
    d="M18.2226 4.36328C13.875 4.36328 10.3486 7.89103 10.3476 12.2383L10.3459 18.4438L7.28943 23.0324C6.15448 24.7361 7.42752 27.1117 9.47438 27.1117H13.9365C14.3443 29.1029 16.1158 30.6135 18.2226 30.6135C19.0199 30.6135 19.7699 30.3945 20.4109 30.023C21.4601 29.4494 20.5541 27.8844 19.5344 28.5088C19.1447 28.7346 18.7021 28.8635 18.2227 28.8635C17.0699 28.8635 16.1039 28.1359 15.7473 27.1117H26.9718C29.0187 27.1117 30.2929 24.7359 29.1567 23.0324L26.0975 18.4463V12.2383C26.0975 10.8027 25.7089 9.45642 25.0423 8.30077C24.9263 8.0998 24.7351 7.95292 24.5108 7.89276C24.2866 7.8328 24.0477 7.86425 23.8468 7.98026C23.6458 8.09628 23.4989 8.28749 23.439 8.51171C23.3788 8.73593 23.4103 8.9748 23.5265 9.17576C24.0472 10.0785 24.3476 11.1172 24.3476 12.2383V18.7113C24.3476 18.8839 24.3987 19.0529 24.4946 19.1966L27.7005 24.0031C28.1142 24.6232 27.7179 25.3617 26.9718 25.3617H9.47429C8.72779 25.3617 8.33189 24.624 8.74539 24.0031L11.9489 19.1941C12.0446 19.0503 12.0958 18.8814 12.0958 18.7085L12.0975 12.2385C12.0985 8.82992 14.8141 6.11352 18.2225 6.11352C19.3436 6.11352 20.3823 6.41391 21.285 6.93462C21.486 7.05102 21.7251 7.08247 21.9493 7.02251C22.1737 6.96235 22.3649 6.81567 22.4811 6.6145C22.5971 6.41352 22.6286 6.17446 22.5682 5.95025C22.5081 5.72583 22.3612 5.53482 22.16 5.4188C21.0044 4.7522 19.6581 4.36355 18.2225 4.36355L18.2226 4.36328Z"
    fill="#017D37"
  />
</svg>
