<svg
  width="10"
  height="14"
  viewBox="0 0 10 14"
  fill="none"
  xmlns="http://www.w3.org/2000/svg"
>
<path
    d="M5.04609 2.7835L4.67617 2.50826L5.04609 2.7835ZM2.39785 6.34267L2.76776 6.61791L2.39785 6.34267ZM4.01411 3.39805C3.8621 3.60235 3.90449 3.89119 4.10879 4.0432C4.31309 4.19521 4.60193 4.15283 4.75394 3.94853L4.01411 3.39805ZM3.42982 5.72812C3.58183 5.52382 3.53945 5.23497 3.33515 5.08296C3.13085 4.93095 2.84201 4.97334 2.69 5.17764L3.42982 5.72812ZM9.31528 6.67184L9.68519 6.94708L9.31528 6.67184ZM4.60564 13.0015L4.23572 12.7263L4.60564 13.0015ZM1.43897 7.63139L1.06906 7.35615L1.43897 7.63139ZM6.14861 1.30173L5.7787 1.02649L6.14861 1.30173ZM5.90913 1.37513V6.05801H6.83129V1.37513H5.90913ZM4.26108 7.66119H1.68558V8.58334H4.26108V7.66119ZM4.84512 12.9281V8.24522H3.92296V12.9281H4.84512ZM8.94536 6.3966L4.23572 12.7263L4.97555 13.2767L9.68519 6.94708L8.94536 6.3966ZM6.49316 6.64204H9.06867V5.71988H6.49316V6.64204ZM5.416 3.05873L6.51853 1.57697L5.7787 1.02649L4.67617 2.50826L5.416 3.05873ZM1.80889 7.90662L2.76776 6.61791L2.02794 6.06744L1.06906 7.35615L1.80889 7.90662ZM4.75394 3.94853L5.416 3.05873L4.67617 2.50826L4.01411 3.39805L4.75394 3.94853ZM2.76776 6.61791L3.42982 5.72812L2.69 5.17764L2.02794 6.06744L2.76776 6.61791ZM9.68519 6.94708C10.0624 6.44011 9.70057 5.71988 9.06867 5.71988V6.64204C8.94228 6.64204 8.86992 6.49799 8.94536 6.3966L9.68519 6.94708ZM3.92296 12.9281C3.92296 13.4905 4.63983 13.7279 4.97555 13.2767L4.23572 12.7263C4.43009 12.465 4.84512 12.6025 4.84512 12.9281H3.92296ZM4.26108 8.58334C4.07434 8.58334 3.92296 8.43196 3.92296 8.24522H4.84512C4.84512 7.92267 4.58364 7.66119 4.26108 7.66119V8.58334ZM1.68558 7.66119C1.81196 7.66119 1.88433 7.80523 1.80889 7.90662L1.06906 7.35615C0.691849 7.86311 1.05368 8.58334 1.68558 8.58334V7.66119ZM5.90913 6.05801C5.90913 6.38056 6.17061 6.64204 6.49316 6.64204V5.71988C6.6799 5.71988 6.83129 5.87126 6.83129 6.05801H5.90913ZM6.83129 1.37513C6.83129 0.812738 6.11441 0.575293 5.7787 1.02649L6.51853 1.57697C6.32416 1.83819 5.90913 1.70072 5.90913 1.37513H6.83129Z"
    fill="#303030"
  />
</svg>
