<svg
  width="35"
  height="35"
  viewBox="0 0 35 35"
  fill="none"
  xmlns="http://www.w3.org/2000/svg"
>
<path
    d="M13.2915 3.66797C7.98601 3.66797 3.66351 7.98787 3.66651 13.294C3.66729 14.6225 3.94893 15.9338 4.48251 17.1461C4.57372 17.3619 4.74774 17.5323 4.96571 17.6188C5.18368 17.7053 5.42704 17.7008 5.64151 17.6063C5.85616 17.5117 6.02374 17.335 6.10675 17.1158C6.18995 16.8967 6.18175 16.6533 6.0839 16.4402C5.6462 15.4463 5.4171 14.3744 5.4165 13.2924C5.41396 8.93339 8.93195 5.41839 13.2915 5.41839C17.6511 5.41839 21.1665 8.93384 21.1665 13.2934C21.1665 17.6529 17.6513 21.1709 13.2925 21.1684C11.5888 21.1674 9.93115 20.608 8.56885 19.5807C8.31924 19.3932 7.9884 19.353 7.7011 19.4752C7.4136 19.5973 7.21301 19.8633 7.17455 20.1733C7.13607 20.483 7.26556 20.7901 7.51459 20.9787C9.17809 22.233 11.205 22.9172 13.2911 22.9184C15.6301 22.9197 17.7775 22.0801 19.4476 20.6865L20.4406 21.6811L20.1868 21.9348C19.1667 22.9529 19.1677 24.6336 20.1868 25.652L23.6876 29.1494C24.7054 30.166 26.3767 30.1652 27.3945 29.1494L29.1453 27.402C30.1654 26.3838 30.1672 24.7033 29.1488 23.6848L25.6514 20.1873C25.1494 19.6856 24.4635 19.4078 23.7654 19.4184C23.0676 19.4289 22.418 19.7073 21.9369 20.1873L21.6797 20.4438L20.6842 19.4483C22.0769 17.778 22.917 15.6317 22.917 13.2933C22.917 7.98778 18.5974 3.66828 13.292 3.66828L13.2915 3.66797ZM23.783 21.169C24.0145 21.1658 24.2416 21.2584 24.4102 21.4272L27.9076 24.9254C28.2578 25.2754 28.2608 25.8127 27.9111 26.1618L26.1611 27.9092C25.8117 28.2581 25.2693 28.2579 24.9203 27.9092L21.4195 24.4118C21.0695 24.0624 21.0697 23.5237 21.4195 23.1747L23.1703 21.4272C23.3336 21.2643 23.5518 21.1723 23.783 21.169L23.783 21.169Z"
    fill="#017D37"
  />
</svg>
